<?xml version="1.0" encoding="iso-8859-1"?>
<!-- Uploaded to: SVG Repo, www.svgrepo.com, Generator: SVG Repo Mixer Tools -->
<svg fill="#666666" height="800px" width="800px" version="1.1" id="Layer_1"
     xmlns="http://www.w3.org/2000/svg"
     viewBox="0 0 512 512" xml:space="preserve">
<g>
	<g>
		<path d="M474.353,256H37.647C16.855,256,0,272.855,0,293.647c0,20.792,16.855,37.647,37.647,37.647h436.706
			c20.792,0,37.647-16.855,37.647-37.647C512,272.855,495.145,256,474.353,256z"/>
	</g>
</g>
    <g>
	<g>
		<path d="M346.276,168.202c0.047-0.846,0.077-1.697,0.077-2.555c0-24.949-20.227-45.176-45.177-45.176V30.118h-90.353v90.353
			c-24.949,0-45.177,20.227-45.177,45.176c0,0.858,0.03,1.709,0.077,2.555c-17.584,6.182-30.194,22.924-30.194,42.621h240.941
			C376.471,191.127,363.86,174.384,346.276,168.202z"/>
	</g>
</g>
    <g>
	<g>
		<path d="M165.647,376.471c0,24.949,20.227,45.177,45.177,45.177h9.035L256,481.882l36.141-60.235h9.035
			c24.949,0,45.177-20.227,45.177-45.177H165.647z"/>
	</g>
</g>
</svg>